<svg width="119" height="119" viewBox="0 0 119 119" fill="none" xmlns="http://www.w3.org/2000/svg">
<circle cx="59.0685" cy="59.0685" r="59.0685" fill="#F7931E"/>
<path d="M32.48 62C32.6507 62 32.7147 62.096 32.672 62.288L32 66.48C32 66.544 31.9573 66.576 31.872 66.576C31.808 66.576 31.744 66.5653 31.68 66.544C31.6373 66.5013 31.616 66.4693 31.616 66.448C31.616 65.2747 31.2853 64.3467 30.624 63.664C29.984 62.96 29.1307 62.608 28.064 62.608H26.816C26.176 62.608 25.7067 62.6613 25.408 62.768C25.1093 62.8533 24.896 63.0347 24.768 63.312C24.64 63.5893 24.5227 64.0267 24.416 64.624L23.264 71.184H27.168C28.0853 71.184 28.7893 71.0027 29.28 70.64C29.7707 70.2773 30.1013 69.6693 30.272 68.816C30.2933 68.7093 30.368 68.6667 30.496 68.688C30.624 68.688 30.6773 68.7413 30.656 68.848L30.368 70.48C30.304 70.7787 30.2293 71.152 30.144 71.6C30.0587 72.0267 29.984 72.5173 29.92 73.072C29.8773 73.2853 29.8347 73.5413 29.792 73.84C29.7493 74.1173 29.696 74.4373 29.632 74.8C29.6107 74.8853 29.536 74.928 29.408 74.928C29.28 74.9067 29.2267 74.8533 29.248 74.768C29.2907 74.576 29.312 74.32 29.312 74C29.312 72.6773 28.5227 72.016 26.944 72.016H23.104L21.824 79.28C21.76 79.664 21.728 79.984 21.728 80.24C21.728 80.688 21.856 80.9867 22.112 81.136C22.368 81.2853 22.8267 81.36 23.488 81.36H25.216C26.304 81.36 27.3707 80.9653 28.416 80.176C29.4613 79.3867 30.3253 78.3307 31.008 77.008C31.008 76.9653 31.0507 76.944 31.136 76.944C31.2 76.944 31.2533 76.9653 31.296 77.008C31.36 77.0293 31.3813 77.0507 31.36 77.072C30.976 78.3093 30.624 79.792 30.304 81.52C30.2613 81.6907 30.1973 81.8187 30.112 81.904C30.048 81.968 29.9413 82 29.792 82H16.608C16.544 82 16.512 81.936 16.512 81.808C16.512 81.68 16.544 81.616 16.608 81.616C17.2267 81.616 17.6853 81.5627 17.984 81.456C18.2827 81.3493 18.5067 81.1467 18.656 80.848C18.8053 80.5493 18.944 80.0693 19.072 79.408L21.696 64.592C21.7813 64.0373 21.824 63.696 21.824 63.568C21.824 63.0987 21.6853 62.7893 21.408 62.64C21.152 62.4693 20.6827 62.384 20 62.384C19.9573 62.384 19.936 62.32 19.936 62.192C19.936 62.064 19.9573 62 20 62H32.48ZM44.5245 69.36C45.0365 69.36 45.4952 69.5627 45.9005 69.968C46.3272 70.352 46.5085 70.7893 46.4445 71.28C46.4018 71.5787 46.2632 71.8347 46.0285 72.048C45.7938 72.24 45.5058 72.336 45.1645 72.336C44.9298 72.336 44.7272 72.2933 44.5565 72.208C44.4072 72.1227 44.2472 72.0053 44.0765 71.856C43.9698 71.7493 43.8525 71.664 43.7245 71.6C43.5965 71.5147 43.4578 71.472 43.3085 71.472C43.0098 71.472 42.6792 71.728 42.3165 72.24L40.6525 74.704L42.0285 79.12C42.2205 79.76 42.4338 80.176 42.6685 80.368C42.9245 80.56 43.2125 80.656 43.5325 80.656C43.8312 80.656 44.1192 80.5707 44.3965 80.4C44.6738 80.2293 44.9832 79.9733 45.3245 79.632C45.3458 79.6107 45.3778 79.6 45.4205 79.6C45.5058 79.6 45.5698 79.6427 45.6125 79.728C45.6552 79.792 45.6445 79.8453 45.5805 79.888C44.7912 80.72 44.0978 81.3387 43.5005 81.744C42.9032 82.128 42.3378 82.32 41.8045 82.32C41.2925 82.32 40.8765 82.1707 40.5565 81.872C40.2578 81.552 39.9698 80.976 39.6925 80.144L38.7965 77.296L37.0685 80.016C36.4712 80.976 36.0125 81.6053 35.6925 81.904C35.3725 82.1813 34.9672 82.32 34.4765 82.32C33.9645 82.32 33.5058 82.128 33.1005 81.744C32.6952 81.3387 32.5352 80.8907 32.6205 80.4C32.6632 80.1227 32.8018 79.888 33.0365 79.696C33.2712 79.4827 33.5485 79.376 33.8685 79.376C34.1245 79.376 34.3272 79.4187 34.4765 79.504C34.6258 79.568 34.7965 79.6747 34.9885 79.824C35.2232 80.0587 35.4578 80.176 35.6925 80.176C36.0125 80.176 36.3538 79.9307 36.7165 79.44L38.6045 76.656L37.3245 72.656C37.1325 72.016 36.8978 71.5893 36.6205 71.376C36.3645 71.1413 36.0872 71.024 35.7885 71.024C35.2552 71.024 34.6472 71.3653 33.9645 72.048C33.9432 72.0693 33.9112 72.08 33.8685 72.08C33.8045 72.08 33.7405 72.048 33.6765 71.984C33.6338 71.8987 33.6445 71.8347 33.7085 71.792C34.4978 70.96 35.1912 70.352 35.7885 69.968C36.4072 69.5627 36.9725 69.36 37.4845 69.36C38.0178 69.36 38.4445 69.52 38.7645 69.84C39.0845 70.16 39.3832 70.7467 39.6605 71.6L40.4285 74.064L41.9645 71.664C42.5618 70.704 43.0205 70.0853 43.3405 69.808C43.6605 69.5093 44.0552 69.36 44.5245 69.36ZM55.5888 69.424C56.6554 69.424 57.4661 69.712 58.0208 70.288C58.5968 70.864 58.8848 71.696 58.8848 72.784C58.8848 73.1467 58.8528 73.52 58.7888 73.904C58.5754 75.3333 58.0741 76.6773 57.2848 77.936C56.5168 79.1733 55.5781 80.1653 54.4688 80.912C53.3808 81.6587 52.2608 82.032 51.1088 82.032C50.6821 82.032 50.1914 82.0107 49.6368 81.968L48.6128 87.696C48.5488 88.08 48.5168 88.3893 48.5168 88.624C48.5168 88.9653 48.5914 89.2107 48.7408 89.36C48.9114 89.5093 49.1781 89.584 49.5408 89.584C49.6261 89.584 49.8608 89.5627 50.2448 89.52C50.3301 89.4987 50.3834 89.5413 50.4048 89.648C50.4261 89.776 50.3941 89.8507 50.3088 89.872L44.4207 90.8C44.3567 90.8213 44.3141 90.768 44.2927 90.64C44.2501 90.512 44.2714 90.4373 44.3568 90.416C44.8047 90.3307 45.1354 90.2133 45.3487 90.064C45.5621 89.936 45.7221 89.7227 45.8287 89.424C45.9354 89.1253 46.0527 88.624 46.1807 87.92L48.9008 72.624C48.1541 73.136 47.6314 73.4987 47.3328 73.712C47.3114 73.7333 47.2794 73.744 47.2368 73.744C47.1728 73.744 47.1194 73.7013 47.0768 73.616C47.0341 73.5307 47.0448 73.4667 47.1088 73.424C47.5354 73.0613 48.1754 72.56 49.0288 71.92L49.4448 69.648C49.4448 69.6053 49.6581 69.4453 50.0848 69.168C50.5114 68.8693 50.8954 68.5707 51.2368 68.272C51.5781 67.952 51.7914 67.6 51.8768 67.216C51.8981 67.1307 51.9621 67.0987 52.0688 67.12C52.1968 67.1413 52.2501 67.1947 52.2288 67.28L51.6848 70.384C53.0714 69.744 54.3728 69.424 55.5888 69.424ZM56.2608 74.96C56.3034 74.5333 56.3248 74.2133 56.3248 74C56.3248 71.9093 55.4394 70.864 53.6688 70.864C52.9434 70.864 52.2288 71.0027 51.5248 71.28L49.8608 80.624C50.5648 80.944 51.3434 81.104 52.1968 81.104C53.3274 81.104 54.2234 80.5493 54.8848 79.44C55.5674 78.3307 56.0261 76.8373 56.2608 74.96ZM62.4448 82.288C61.9541 82.288 61.5914 82.1493 61.3568 81.872C61.1434 81.5947 61.0368 81.168 61.0368 80.592C61.0368 80.272 61.0901 79.792 61.1968 79.152L64.2048 62.832C64.2688 62.4693 64.3008 62.16 64.3008 61.904C64.3008 61.3067 64.0874 61.008 63.6608 61.008C63.3621 61.008 62.8928 61.1573 62.2528 61.456H62.1888C62.1034 61.456 62.0501 61.4027 62.0288 61.296C62.0074 61.1893 62.0394 61.1253 62.1248 61.104L66.7968 58.8H66.8608C66.9461 58.8 67.0208 58.832 67.0848 58.896C67.1701 58.96 67.2021 59.0133 67.1808 59.056L63.5648 79.152C63.5008 79.472 63.4688 79.7493 63.4688 79.984C63.4688 80.5173 63.6394 80.784 63.9808 80.784C64.3648 80.784 64.9728 80.368 65.8048 79.536C65.8474 79.4933 65.8901 79.472 65.9328 79.472C65.9968 79.472 66.0501 79.5147 66.0928 79.6C66.1354 79.664 66.1248 79.728 66.0608 79.792C65.3354 80.6453 64.6954 81.2747 64.1408 81.68C63.5861 82.0853 63.0208 82.288 62.4448 82.288ZM72.3053 82.448C70.9399 82.448 69.8839 82 69.1373 81.104C68.4119 80.208 68.0493 79.0453 68.0493 77.616C68.0493 77.0187 68.1133 76.4213 68.2413 75.824C68.4759 74.5653 68.9239 73.4347 69.5853 72.432C70.2679 71.4293 71.0999 70.6507 72.0813 70.096C73.0626 69.52 74.0973 69.232 75.1853 69.232C76.5719 69.232 77.6386 69.6693 78.3853 70.544C79.1319 71.4187 79.5053 72.5707 79.5053 74C79.5053 74.576 79.4413 75.184 79.3133 75.824C79.0573 77.1893 78.5559 78.3733 77.8093 79.376C77.0839 80.3787 76.2306 81.1467 75.2493 81.68C74.2893 82.192 73.3079 82.448 72.3053 82.448ZM73.3933 81.648C74.1399 81.648 74.8013 81.2533 75.3773 80.464C75.9533 79.6747 76.3693 78.5973 76.6253 77.232C76.7746 76.5067 76.8493 75.7387 76.8493 74.928C76.8493 73.52 76.6039 72.3467 76.1133 71.408C75.6439 70.4693 74.9933 70 74.1613 70C73.4359 70 72.7746 70.384 72.1773 71.152C71.6013 71.92 71.1853 73.0187 70.9293 74.448C70.7799 75.344 70.7053 76.1013 70.7053 76.72C70.7053 78.1493 70.9399 79.3333 71.4093 80.272C71.8999 81.1893 72.5613 81.648 73.3933 81.648ZM89.658 69.36C90.17 69.36 90.6607 69.552 91.13 69.936C91.5993 70.32 91.7913 70.7573 91.706 71.248C91.6633 71.5467 91.5247 71.824 91.29 72.08C91.0553 72.3147 90.7673 72.432 90.426 72.432C90.042 72.432 89.658 72.24 89.274 71.856C89.146 71.7493 89.018 71.6533 88.89 71.568C88.762 71.4827 88.6233 71.44 88.474 71.44C88.0687 71.44 87.578 72.0267 87.002 73.2C86.426 74.352 85.882 75.7493 85.37 77.392C84.858 79.0133 84.4953 80.4427 84.282 81.68C84.2393 81.8507 84.0793 81.9893 83.802 82.096C83.546 82.2027 83.194 82.256 82.746 82.256C82.106 82.256 81.786 82.1813 81.786 82.032L81.946 81.36C81.9887 81.1893 82.042 80.9653 82.106 80.688C82.17 80.3893 82.234 80.0373 82.298 79.632L83.514 72.912C83.5993 72.3573 83.642 72.0053 83.642 71.856C83.642 71.1733 83.4287 70.832 83.002 70.832C82.5327 70.832 81.9033 71.248 81.114 72.08C81.0927 72.1013 81.0607 72.112 81.018 72.112C80.954 72.112 80.9007 72.08 80.858 72.016C80.8153 71.9307 80.8153 71.856 80.858 71.792C81.6047 70.9387 82.266 70.32 82.842 69.936C83.4393 69.552 84.0367 69.36 84.634 69.36C85.1247 69.36 85.4767 69.5093 85.69 69.808C85.9247 70.0853 86.042 70.5227 86.042 71.12C86.042 71.4827 85.9887 71.984 85.882 72.624L85.242 76.272C85.8607 74.224 86.5433 72.56 87.29 71.28C88.0367 70 88.826 69.36 89.658 69.36ZM99.4503 69.232C100.218 69.232 100.816 69.3707 101.242 69.648C101.669 69.904 101.882 70.2773 101.882 70.768C101.882 71.7493 101.157 72.656 99.7063 73.488C98.2769 74.32 96.5489 74.9173 94.5223 75.28C94.4369 75.9627 94.3943 76.464 94.3943 76.784C94.3943 78.0853 94.6716 79.1307 95.2263 79.92C95.7809 80.688 96.5809 81.072 97.6263 81.072C98.1169 81.072 98.6289 80.9973 99.1623 80.848C99.6956 80.6773 100.186 80.4213 100.634 80.08H100.666C100.73 80.08 100.784 80.112 100.826 80.176C100.89 80.24 100.901 80.2933 100.858 80.336C99.3863 81.7013 97.7543 82.384 95.9623 82.384C94.5543 82.384 93.4876 81.9467 92.7623 81.072C92.0369 80.1973 91.6743 79.0773 91.6743 77.712C91.6743 77.2213 91.7276 76.6773 91.8343 76.08C92.0476 74.9493 92.5063 73.8613 93.2103 72.816C93.9356 71.7493 94.8423 70.8853 95.9303 70.224C97.0396 69.5627 98.2129 69.232 99.4503 69.232ZM99.0023 71.632C99.0449 71.4187 99.0663 71.28 99.0663 71.216C99.0663 70.8533 98.9489 70.576 98.7143 70.384C98.4796 70.192 98.1916 70.096 97.8503 70.096C97.0609 70.096 96.3783 70.5333 95.8023 71.408C95.2476 72.2827 94.8423 73.4133 94.5863 74.8C97.2743 74.2027 98.7463 73.1467 99.0023 71.632Z" fill="white"/>
<path d="M37.436 38.9155C50.0552 27.0407 69.7759 27.0407 82.395 38.9155C69.7759 50.7904 50.0552 50.7904 37.436 38.9155Z" stroke="white" stroke-width="2"/>
<circle cx="60.0715" cy="39.0713" r="7.2002" stroke="white" stroke-width="2"/>
</svg>
