<svg width="42" height="43" viewBox="0 0 42 43" fill="none" xmlns="http://www.w3.org/2000/svg">
<path d="M38.4812 1.03998H3.51118C2.09733 1.03998 0.951172 2.18613 0.951172 3.59998V38.57C0.951172 39.9838 2.09733 41.13 3.51118 41.13H38.4812C39.895 41.13 41.0412 39.9838 41.0412 38.57V3.59998C41.0412 2.18613 39.895 1.03998 38.4812 1.03998Z" stroke="#214724" stroke-width="1.8" stroke-miterlimit="10"/>
<path d="M25.7712 13.4499H29.1012V8.30994H24.7313C20.5513 8.30994 17.1712 11.6999 17.1712 15.8699V18.7599H13.2812V23.4299H17.1712V33.4299H23.1413V23.4299H27.3013L28.2712 18.7599H23.1312V16.0799C23.1312 14.6199 24.3112 13.4399 25.7712 13.4399V13.4499Z" stroke="#214724" stroke-width="1.8" stroke-miterlimit="10"/>
</svg>
