<svg width="268" height="351" viewBox="0 0 268 351" fill="none" xmlns="http://www.w3.org/2000/svg">
<g clip-path="url(#clip0_202_117)">
<path d="M214.792 132.409H189.357V112.558C189.357 105.541 195.063 99.8359 202.079 99.8359C209.096 99.8359 214.801 105.541 214.801 112.558V132.409H214.792ZM193.18 128.587H210.97V112.558C210.97 107.649 206.979 103.658 202.079 103.658C197.18 103.658 193.189 107.649 193.189 112.558V128.587H193.18Z" fill="white"/>
<path d="M248.433 132.409H222.998V112.558C222.998 105.541 228.703 99.8359 235.72 99.8359C242.737 99.8359 248.442 105.541 248.442 112.558V132.409H248.433ZM226.82 128.587H244.61V112.558C244.61 107.649 240.62 103.658 235.72 103.658C230.821 103.658 226.83 107.649 226.83 112.558V128.587H226.82Z" fill="white"/>
<path d="M175.043 350.611H76.7341V270.832C76.7341 243.815 98.7211 221.828 125.739 221.828H126.038C153.056 221.828 175.043 243.815 175.043 270.832V350.611ZM80.5563 346.789H171.221V270.832C171.221 245.922 150.948 225.65 126.038 225.65H125.739C100.829 225.65 80.5563 245.922 80.5563 270.832V346.789Z" fill="white"/>
<path d="M157.506 331.21H94.2711V272.846C94.2711 255.412 108.454 241.229 125.888 241.229C143.323 241.229 157.506 255.412 157.506 272.846V331.21ZM98.0933 327.387H153.684V272.846C153.684 257.52 141.215 245.051 125.888 245.051C110.562 245.051 98.0933 257.52 98.0933 272.846V327.387Z" fill="white"/>
<path d="M155.267 273.512H96.5102V277.334H155.267V273.512Z" fill="white"/>
<path d="M141.824 274.41H138.002C138.002 267.431 132.568 261.763 125.889 261.763C119.209 261.763 113.776 267.44 113.776 274.41H109.953C109.953 265.323 117.101 257.941 125.889 257.941C134.676 257.941 141.824 265.332 141.824 274.41Z" fill="white"/>
<path d="M127.8 243.14H123.977V259.637H127.8V243.14Z" fill="white"/>
<path d="M127.8 277.043H123.977V327.369H127.8V277.043Z" fill="white"/>
<path d="M50.8032 138.704C44.2736 138.704 38.1188 136.203 33.4253 131.65C27.5515 125.935 24.2446 118.272 24.1322 110.075C24.0198 101.878 27.1019 94.1307 32.8164 88.2475C36.8915 84.06 41.7255 80.9404 47.1964 78.9918C66.1762 72.2 87.4699 82.6267 94.6646 102.215C98.2901 112.089 99.1051 122.563 97.0816 133.336C96.8849 134.376 95.8918 135.06 94.852 134.863C93.8121 134.666 93.1282 133.673 93.325 132.634C95.2173 122.544 94.4585 112.754 91.0766 103.536C84.6033 85.9055 65.4923 76.5093 48.4892 82.5986C43.5804 84.3598 39.2336 87.1608 35.5613 90.9268C25.2282 101.55 25.4718 118.591 36.0952 128.924C40.1329 132.849 45.3978 134.994 51.1123 134.901C56.7519 134.826 62.0168 132.549 65.9514 128.512C72.2936 121.982 72.1531 111.518 65.6235 105.166C63.2159 102.824 59.7965 101.625 56.2835 101.822C51.2716 102.122 47.3932 104.398 45.6413 108.061C44.0956 111.312 44.4329 115.143 46.5313 118.057C48.4518 120.727 51.8149 121.888 55.0938 121.036C56.1149 120.764 57.1641 121.382 57.4264 122.404C57.6981 123.425 57.0798 124.474 56.0587 124.736C51.2247 126.001 46.269 124.258 43.4211 120.296C40.517 116.249 40.0392 110.928 42.1845 106.422C44.5453 101.457 49.6041 98.3932 56.0493 98.0091C60.6397 97.728 65.1083 99.3487 68.284 102.431C76.3219 110.244 76.4999 123.144 68.6869 131.182C64.0403 135.959 57.8199 138.639 51.1592 138.732C51.0374 138.732 50.9156 138.732 50.8032 138.732V138.704Z" fill="white"/>
<path d="M130.067 129.569V172.841H126.244V133.392H113.204C86.8985 133.392 63.1222 144.259 46.3252 161.674C45.4259 162.601 44.5453 163.547 43.7022 164.512C29.5938 180.391 21.0501 201.142 21.0501 223.794V348.211H17.2279V223.794C17.2279 200.355 25.9964 178.883 40.4702 162.376C41.332 161.402 42.2033 160.437 43.1026 159.5C46.906 155.51 51.0468 151.847 55.4966 148.558C56.6114 147.715 57.7543 146.91 58.916 146.132C69.1834 139.19 80.8935 134.16 93.503 131.574C94.8239 131.293 96.1635 131.05 97.5032 130.834C102.609 130 107.855 129.569 113.204 129.569H130.067Z" fill="white"/>
<path d="M18.9423 346.123H18.6238V342.301H18.9423C30.8117 342.301 40.4608 332.643 40.4608 320.783V223.176C40.4608 184.383 72.022 152.812 110.825 152.812V156.635C74.1392 156.635 44.2924 186.481 44.2924 223.167V320.773C44.2924 334.75 32.9195 346.123 18.9423 346.123Z" fill="white"/>
<path d="M42.5687 303.216V299.394C54.9439 299.394 65.0146 289.323 65.0146 276.948V223.54C65.0146 197.591 84.9874 176.484 109.541 176.484V180.307C87.0953 180.307 68.8368 199.699 68.8368 223.531V276.939C68.8368 291.422 57.0517 303.207 42.5687 303.207V303.216Z" fill="white"/>
<path d="M267.113 184.279C266.944 184.279 266.775 184.279 266.607 184.279C264.237 184.336 261.876 184.523 259.543 184.907C211.091 192.889 175.118 237.05 175.118 289.633V335.64H171.296V289.633C171.296 234.699 209.274 188.626 260.218 180.926C262.335 180.607 264.461 180.448 266.607 180.438H267.122V184.27L267.113 184.279Z" fill="white"/>
<path d="M164.579 241.154L160.925 240.02C162.227 235.823 163.895 231.945 163.97 231.785C182.088 189.236 220.694 161.759 264.714 160.082H267.122V163.904H264.789C222.333 165.525 185.02 192.112 167.483 233.294C167.464 233.341 165.825 237.163 164.579 241.154Z" fill="white"/>
<path d="M125.008 205.143H95.2455V201.32H125.008C137.552 201.32 147.763 191.119 147.763 178.565V74.9166C147.763 70.0733 143.819 66.1293 138.976 66.1293C134.133 66.1293 130.189 70.0733 130.189 74.9166V123.125H126.366V74.9166C126.366 67.9655 132.025 62.3071 138.976 62.3071C145.927 62.3071 151.585 67.9655 151.585 74.9166V178.565C151.585 193.217 139.66 205.143 125.008 205.143Z" fill="white"/>
<path d="M262.232 350.769H4.42168C1.98598 350.769 -6.10352e-05 348.783 -6.10352e-05 346.348V141.233C-6.10352e-05 67.7122 59.8059 7.90625 133.327 7.90625C141.449 7.90625 149.58 8.64633 157.496 10.089L156.803 13.8456C149.112 12.4404 141.205 11.7191 133.317 11.7191C61.9231 11.7284 3.82212 69.8294 3.82212 141.233V346.348C3.82212 346.675 4.0938 346.947 4.42168 346.947H262.232C262.56 346.947 262.831 346.675 262.831 346.348V198.257H266.654V346.348C266.654 348.783 264.668 350.769 262.232 350.769Z" fill="white"/>
<path d="M151.548 77.5489L148.569 75.1507L153.159 69.4455L147.06 70.373L146.48 66.5976L162.312 64.1807L151.548 77.5489Z" fill="white"/>
<path d="M46.3252 161.675C45.4258 162.602 44.5452 163.548 43.7021 164.513C42.6529 163.754 41.5755 163.042 40.4701 162.377C33.6033 158.162 25.8278 155.445 17.7712 154.424C13.1152 153.843 8.44057 153.824 3.83146 154.386C3.21317 154.452 2.59487 154.536 1.98594 154.63L1.41449 150.845C2.22015 150.723 3.0258 150.62 3.83146 150.536C8.59982 149.993 13.4431 150.03 18.249 150.63C27.0925 151.744 35.6081 154.789 43.1025 159.501C44.1986 160.185 45.2759 160.916 46.3252 161.675Z" fill="white"/>
<path d="M58.0259 150.077C45.1167 142.03 30.8303 137.28 15.5697 135.959C11.1011 135.575 6.5763 135.5 2.12645 135.734L1.92035 131.912C6.54819 131.669 11.251 131.743 15.8976 132.146C31.7671 133.514 46.6249 138.451 60.0494 146.826L58.0259 150.068V150.077Z" fill="white"/>
<path d="M138.142 225.153H134.32C134.32 203.831 151.66 186.491 172.982 186.491V190.313C153.768 190.313 138.142 205.939 138.142 225.153Z" fill="white"/>
<path d="M175.811 0C178.406 0.665135 180.683 1.75183 182.893 2.93222C183.989 3.53177 185.057 4.1688 186.088 4.85268C187.381 5.74265 187.456 5.75201 188.008 5.78012C188.243 5.78949 188.477 5.75201 188.692 5.6677C188.805 5.6396 188.908 5.57402 189.02 5.51781L189.779 4.98383C190.809 4.29996 191.849 3.62545 192.945 3.01653C195.137 1.80804 197.405 0.702608 200 0.0093681C198.707 2.36076 197.086 4.29996 195.381 6.13611C194.529 7.05418 193.629 7.90668 192.711 8.74044L192.018 9.34936C191.634 9.65851 191.222 9.94892 190.772 10.1644C189.863 10.586 188.861 10.8202 187.858 10.7827C186.856 10.7452 185.863 10.4735 184.992 9.98639C184.008 9.3681 183.718 9.03085 183.221 8.61865C182.294 7.80363 181.394 6.94176 180.523 6.05179C178.8 4.23438 177.151 2.33266 175.811 0.0093681V0Z" fill="white"/>
<path d="M196.899 16.1406C199.494 16.8058 201.77 17.8925 203.981 19.0728C205.077 19.6724 206.145 20.3094 207.175 20.9933C208.468 21.8833 208.543 21.8926 209.096 21.9207C209.33 21.9301 209.564 21.8926 209.78 21.8083C209.892 21.7802 209.995 21.7146 210.108 21.6584L210.867 21.1245C211.897 20.4406 212.937 19.7661 214.033 19.1572C216.225 17.9487 218.492 16.8432 221.087 16.15C219.794 18.5014 218.174 20.4406 216.469 22.2767C215.616 23.1948 214.717 24.0473 213.799 24.8811L213.105 25.49C212.721 25.7991 212.309 26.0895 211.86 26.305C210.951 26.7266 209.948 26.9608 208.946 26.9233C207.944 26.8858 206.951 26.6142 206.079 26.127C205.096 25.5087 204.805 25.1715 204.309 24.7593C203.381 23.9443 202.482 23.0824 201.611 22.1924C199.887 20.375 198.238 18.4733 196.899 16.15V16.1406Z" fill="white"/>
<path d="M263.899 297.484H174.977V301.306H263.899V297.484Z" fill="white"/>
<path d="M252.676 141.065H184.823V144.887H252.676V141.065Z" fill="white"/>
<path d="M263.084 227.879H190.435V231.701H263.084V227.879Z" fill="white"/>
<path d="M263.216 281.184H174.144V285.006H263.216V281.184Z" fill="white"/>
<path d="M248.845 284.81H225.49V259.628C225.49 253.192 230.727 247.956 237.163 247.956C243.599 247.956 248.835 253.192 248.835 259.628V284.81H248.845ZM229.322 280.988H245.023V259.628C245.023 255.3 241.5 251.778 237.172 251.778C232.844 251.778 229.322 255.3 229.322 259.628V280.988Z" fill="white"/>
<path d="M215.691 284.81H192.336V259.628C192.336 253.192 197.573 247.956 204.009 247.956C210.445 247.956 215.682 253.192 215.682 259.628V284.81H215.691ZM196.168 280.988H211.869V259.628C211.869 255.3 208.347 251.778 204.018 251.778C199.69 251.778 196.168 255.3 196.168 259.628V280.988Z" fill="white"/>
<path d="M175.193 218.118H171.371V77.8022H187.718C192.805 64.6025 205.302 55.834 219.232 55.834C233.163 55.834 245.65 64.6025 250.747 77.8022H267.094V150.911H263.272V81.6337H248.039L247.599 80.3409C243.374 67.975 231.973 59.6655 219.232 59.6655C206.492 59.6655 195.091 67.975 190.875 80.3409L190.435 81.6337H175.202V218.127L175.193 218.118Z" fill="white"/>
<path d="M120.296 74.8883C119.443 74.8883 118.591 74.832 117.748 74.729C113.363 74.1669 109.372 72.1809 106.525 69.1456C103.368 65.7825 101.766 61.0797 102.337 56.8734C102.974 52.1706 106.403 48.2454 110.665 47.3273C113.251 46.7652 115.799 47.4022 117.457 49.0323C119.659 51.1776 120.005 54.9904 118.235 57.5385C116.595 59.8899 113.494 60.9391 110.543 60.1522C109.522 59.8806 108.923 58.8313 109.194 57.8102C109.466 56.7891 110.515 56.1895 111.537 56.4612C112.904 56.8266 114.403 56.3675 115.106 55.3558C115.818 54.3346 115.668 52.6296 114.797 51.7771C113.925 50.9246 112.52 50.8497 111.48 51.0745C108.764 51.6647 106.562 54.2597 106.14 57.398C105.719 60.4895 106.946 63.9931 109.326 66.5413C111.565 68.9301 114.731 70.4946 118.244 70.9443C121.635 71.3752 125.12 70.7288 128.043 69.1175C128.971 68.6116 130.132 68.9395 130.638 69.867C131.144 70.7944 130.816 71.956 129.889 72.4619C126.994 74.0639 123.659 74.8976 120.305 74.8976L120.296 74.8883Z" fill="white"/>
<path d="M137.702 65.8769C137.486 65.8769 137.271 65.8394 137.055 65.7645C135.079 65.0525 133.224 64.0314 131.566 62.7386C128.071 60.0312 125.645 56.3027 124.727 52.237C123.715 47.7309 124.727 42.8689 127.35 39.5338C130.282 35.8053 135.238 34.1659 139.369 35.5336C141.889 36.3674 143.753 38.2035 144.362 40.4519C145.168 43.4216 143.529 46.8784 140.718 48.1712C138.114 49.3703 134.91 48.7052 132.765 46.513C132.025 45.7636 132.034 44.5457 132.783 43.8057C133.542 43.0656 134.751 43.075 135.491 43.8338C136.484 44.8455 138.011 45.2015 139.126 44.6956C140.259 44.171 140.999 42.6253 140.681 41.4449C140.362 40.2645 139.182 39.487 138.179 39.1591C135.528 38.2785 132.324 39.412 130.366 41.8946C128.437 44.349 127.715 47.9838 128.474 51.3938C129.195 54.5977 131.125 57.5487 133.917 59.7127C135.266 60.7619 136.765 61.5863 138.367 62.1671C139.36 62.5231 139.875 63.6192 139.519 64.6122C139.238 65.3898 138.507 65.8769 137.72 65.8769H137.702Z" fill="white"/>
<path d="M180.533 53.9134C171.792 53.9134 164.691 46.803 164.691 38.0719C164.691 29.3409 171.802 22.2305 180.533 22.2305C189.264 22.2305 196.374 29.3409 196.374 38.0719C196.374 46.803 189.264 53.9134 180.533 53.9134ZM180.533 26.0433C173.909 26.0433 168.513 31.4393 168.513 38.0626C168.513 44.6858 173.909 50.0818 180.533 50.0818C187.156 50.0818 192.552 44.6858 192.552 38.0626C192.552 31.4393 187.156 26.0433 180.533 26.0433Z" fill="white"/>
<path d="M221.143 347.435H219.232C194.875 347.435 175.062 327.622 175.062 303.265V301.354H176.973C201.33 301.354 221.143 321.167 221.143 345.524V347.435ZM178.931 305.223C179.924 325.917 196.58 342.573 217.274 343.566C216.281 322.872 199.625 306.216 178.931 305.223Z" fill="white"/>
<path d="M219.71 347.434H217.799V345.523C217.799 321.157 237.622 301.343 261.988 301.343H263.899V303.254C263.899 327.621 244.076 347.434 219.71 347.434ZM260.021 305.212C239.327 306.205 222.661 322.871 221.668 343.565C242.362 342.572 259.028 325.906 260.021 305.212Z" fill="white"/>
</g>
<defs>
<clipPath id="clip0_202_117">
<rect width="267.113" height="350.77" fill="white"/>
</clipPath>
</defs>
</svg>
