<svg width="43" height="43" viewBox="0 0 43 43" fill="none" xmlns="http://www.w3.org/2000/svg">
<path d="M39.0905 1.03998H4.12055C2.7067 1.03998 1.56055 2.18613 1.56055 3.59998V38.57C1.56055 39.9838 2.7067 41.13 4.12055 41.13H39.0905C40.5044 41.13 41.6506 39.9838 41.6506 38.57V3.59998C41.6506 2.18613 40.5044 1.03998 39.0905 1.03998Z" stroke="#214724" stroke-width="1.8" stroke-miterlimit="10"/>
<path d="M21.5402 28.68C25.0196 28.68 27.8402 25.8593 27.8402 22.38C27.8402 18.9006 25.0196 16.08 21.5402 16.08C18.0608 16.08 15.2402 18.9006 15.2402 22.38C15.2402 25.8593 18.0608 28.68 21.5402 28.68Z" stroke="#214724" stroke-width="1.8" stroke-miterlimit="10"/>
<path d="M29.6815 14.97C30.5983 14.97 31.3415 14.2268 31.3415 13.31C31.3415 12.3932 30.5983 11.65 29.6815 11.65C28.7647 11.65 28.0215 12.3932 28.0215 13.31C28.0215 14.2268 28.7647 14.97 29.6815 14.97Z" fill="#224725"/>
<path d="M28.0506 8.79999H15.1606C11.6978 8.79999 8.89062 11.6072 8.89062 15.07V27.96C8.89062 31.4228 11.6978 34.23 15.1606 34.23H28.0506C31.5135 34.23 34.3206 31.4228 34.3206 27.96V15.07C34.3206 11.6072 31.5135 8.79999 28.0506 8.79999Z" stroke="#214724" stroke-width="1.8" stroke-miterlimit="10"/>
</svg>
