<svg width="43" height="43" viewBox="0 0 43 43" fill="none" xmlns="http://www.w3.org/2000/svg">
<path d="M39.2702 1.03998H4.30024C2.88639 1.03998 1.74023 2.18613 1.74023 3.59998V38.57C1.74023 39.9838 2.88639 41.13 4.30024 41.13H39.2702C40.6841 41.13 41.8302 39.9838 41.8302 38.57V3.59998C41.8302 2.18613 40.6841 1.03998 39.2702 1.03998Z" stroke="#214724" stroke-width="1.8" stroke-miterlimit="10"/>
<path d="M15.9395 18.8099H11.0195V33.4499H15.9395V18.8099Z" stroke="#214724" stroke-width="1.8" stroke-miterlimit="10"/>
<path d="M33.8392 25.41V33.44H28.8792V25.73C28.8792 24.56 27.9292 23.61 26.7592 23.61C25.5792 23.61 24.6192 24.57 24.6192 25.75V33.44H19.6992V18.81H24.6192V20.04C26.0692 18.73 28.3292 18.29 30.5792 19.57C32.6492 20.75 33.8392 23.03 33.8392 25.41Z" stroke="#214724" stroke-width="1.8" stroke-miterlimit="10"/>
<path d="M13.4801 15.73C14.8995 15.73 16.0502 14.5793 16.0502 13.16C16.0502 11.7406 14.8995 10.59 13.4801 10.59C12.0608 10.59 10.9102 11.7406 10.9102 13.16C10.9102 14.5793 12.0608 15.73 13.4801 15.73Z" stroke="#214724" stroke-width="1.8" stroke-miterlimit="10"/>
</svg>
