<svg width="32" height="32" viewBox="0 0 32 32" fill="none" xmlns="http://www.w3.org/2000/svg">
<path d="M5.66584 13C8.54452 12.5683 10.4287 11.7639 11.8551 10.9086C12.2419 10.6767 12.3996 10.2041 12.2859 9.76776C11.943 8.45148 11.6353 6.57574 11.5346 4.99922C11.4994 4.44806 11.0523 4 10.5 4H5C4.44772 4 3.99797 4.44887 4.01856 5.00077C4.36803 14.368 9.55081 19.5508 11 21C12.4492 22.4492 17.632 27.632 26.9992 27.9814C27.5511 28.002 28 27.5523 28 27V21.5C28 20.9477 27.5519 20.5006 27.0008 20.4654C25.4243 20.3647 23.5485 20.057 22.2322 19.7141C21.7959 19.6004 21.3233 19.7581 21.0914 20.1449C20.2361 21.5713 19.4317 23.4555 19 26.3342" stroke="#5C5A53" stroke-width="2"/>
</svg>
